<svg xmlns="http://www.w3.org/2000/svg" width="1800" height="2120" viewBox="0 0 1800 2120" role="img"><title>Vela Omni Nano: three embedding encoders</title><desc>Bottom-to-top public encode_text, encode_image and encode_audio graphs. Expanded Transformer layers show real normalization order, residuals, attention and feed-forward widths. The common vector space contains three independently computed vectors. Dropout, inactive during inference, is omitted. Nano vision uses learned-probe attention pooling followed by a pre-normalized GELU-tanh residual MLP. The frozen GIST-small text tower has twelve BERT layers and uses CLS readout with identity projection. The single-modality package has no BERT pooler, multimodal fusion, or intermediate exit heads.</desc>
<defs><marker id="arrow" markerWidth="12" markerHeight="10" refX="11" refY="5" orient="auto" markerUnits="userSpaceOnUse"><path d="M0 0 L12 5 L0 10 L3 5 Z" fill="#111"/></marker></defs>
        <style>text{font-family:Arial,Helvetica,sans-serif;fill:#111;font-weight:400}.math{font-family:Georgia,'Times New Roman',serif;font-style:italic}.serif{font-family:Georgia,'Times New Roman',serif}</style>
<text x="900" y="64.0" font-size="39" text-anchor="middle" class="serif">Vela Omni Nano</text>
<text x="900" y="96.0" font-size="22" text-anchor="middle" class="">135.4M total parameters</text>
<rect x="170" y="115" width="1460" height="130" rx="9" fill="#FFFFFF" stroke="#111" stroke-width="2.2"/>
<text x="900" y="158.0" font-size="29" text-anchor="middle" class="serif">Shared 384-dimensional embedding space</text>
<text x="350" y="211" font-size="30" text-anchor="middle" class="math">z<tspan baseline-shift="sub" font-size="20" font-style="normal">text</tspan></text>
<g data-box="205.0 300 290 58">
<rect x="205.0" y="300" width="290" height="58" rx="7" fill="#D8EBD8" stroke="#111" stroke-width="2.2"/>
<text x="350" y="337.84" font-size="26" text-anchor="middle" class="">L2 Normalize</text>
</g>
<path d="M350,299 L350,246" fill="none" stroke="#111" stroke-width="2.3" stroke-linecap="round" stroke-linejoin="round" marker-end="url(#arrow)"/>
<text x="900" y="211" font-size="30" text-anchor="middle" class="math">z<tspan baseline-shift="sub" font-size="20" font-style="normal">image</tspan></text>
<g data-box="755.0 300 290 58">
<rect x="755.0" y="300" width="290" height="58" rx="7" fill="#D8EBD8" stroke="#111" stroke-width="2.2"/>
<text x="900" y="337.84" font-size="26" text-anchor="middle" class="">L2 Normalize</text>
</g>
<path d="M900,299 L900,246" fill="none" stroke="#111" stroke-width="2.3" stroke-linecap="round" stroke-linejoin="round" marker-end="url(#arrow)"/>
<text x="1450" y="211" font-size="30" text-anchor="middle" class="math">z<tspan baseline-shift="sub" font-size="20" font-style="normal">audio</tspan></text>
<g data-box="1305.0 300 290 58">
<rect x="1305.0" y="300" width="290" height="58" rx="7" fill="#D8EBD8" stroke="#111" stroke-width="2.2"/>
<text x="1450" y="337.84" font-size="26" text-anchor="middle" class="">L2 Normalize</text>
</g>
<path d="M1450,299 L1450,246" fill="none" stroke="#111" stroke-width="2.3" stroke-linecap="round" stroke-linejoin="round" marker-end="url(#arrow)"/>
<rect x="158.0" y="900" width="410" height="550" rx="23" fill="#F4F4F4" stroke="#111" stroke-width="2.2"/>
<text x="134.0" y="1184.0" font-size="30" text-anchor="end" class="math">12×</text>
<g data-box="205.0 938 290 55">
<rect x="205.0" y="938" width="290" height="55" rx="7" fill="#FBF8CB" stroke="#111" stroke-width="2.2"/>
<text x="350" y="974.0" font-size="25" text-anchor="middle" class="">Add &amp; Norm</text>
</g>
<g data-box="205.0 1028 290 98">
<rect x="205.0" y="1028" width="290" height="98" rx="7" fill="#C7E5F0" stroke="#111" stroke-width="2.2"/>
<text x="350" y="1059.5700000000002" font-size="21" text-anchor="middle" class="">Feed Forward</text>
<text x="350" y="1084.14" font-size="21" text-anchor="middle" class="">Linear · GELU · Linear</text>
<text x="350" y="1108.7100000000003" font-size="21" text-anchor="middle" class="">384 → 1536 → 384</text>
</g>
<g data-box="205.0 1172 290 55">
<rect x="205.0" y="1172" width="290" height="55" rx="7" fill="#FBF8CB" stroke="#111" stroke-width="2.2"/>
<text x="350" y="1208.0" font-size="25" text-anchor="middle" class="">Add &amp; Norm</text>
</g>
<g data-box="205.0 1281 290 96">
<rect x="205.0" y="1281" width="290" height="96" rx="7" fill="#FCE1B8" stroke="#111" stroke-width="2.2"/>
<text x="350" y="1323.6100000000001" font-size="22" text-anchor="middle" class="">Multi-Head Self-Attention</text>
<text x="350" y="1349.3500000000001" font-size="22" text-anchor="middle" class="">12 heads · 32 / head</text>
</g>
<path d="M350,1470 L350,1412" fill="none" stroke="#111" stroke-width="2.3" stroke-linecap="round" stroke-linejoin="round" marker-end="url(#arrow)"/>
<path d="M350,1412 L285,1412 L285,1378" fill="none" stroke="#111" stroke-width="2.3" stroke-linecap="round" stroke-linejoin="round" marker-end="url(#arrow)"/>
<path d="M350,1412 L350,1412 L350,1378" fill="none" stroke="#111" stroke-width="2.3" stroke-linecap="round" stroke-linejoin="round" marker-end="url(#arrow)"/>
<path d="M350,1412 L415,1412 L415,1378" fill="none" stroke="#111" stroke-width="2.3" stroke-linecap="round" stroke-linejoin="round" marker-end="url(#arrow)"/>
<path d="M350,1280 L350,1228" fill="none" stroke="#111" stroke-width="2.3" stroke-linecap="round" stroke-linejoin="round" marker-end="url(#arrow)"/>
<path d="M350,1171 L350,1127" fill="none" stroke="#111" stroke-width="2.3" stroke-linecap="round" stroke-linejoin="round" marker-end="url(#arrow)"/>
<path d="M350,1027 L350,994" fill="none" stroke="#111" stroke-width="2.3" stroke-linecap="round" stroke-linejoin="round" marker-end="url(#arrow)"/>
<path d="M350,937 L350,880" fill="none" stroke="#111" stroke-width="2.3" stroke-linecap="round" stroke-linejoin="round"/>
<path d="M350,1429 L539.0,1429 L539.0,1200 L496.0,1200" fill="none" stroke="#111" stroke-width="2.3" stroke-linecap="round" stroke-linejoin="round" marker-end="url(#arrow)"/>
<path d="M350,1149 L539.0,1149 L539.0,965 L496.0,965" fill="none" stroke="#111" stroke-width="2.3" stroke-linecap="round" stroke-linejoin="round" marker-end="url(#arrow)"/>
<circle cx="350" cy="1429" r="3.5" fill="#111"/>
<circle cx="350" cy="1149" r="3.5" fill="#111"/>
<g data-box="205.0 705 290 75">
<rect x="205.0" y="705" width="290" height="75" rx="7" fill="#E6ECE8" stroke="#111" stroke-width="2.2"/>
<text x="350" y="736.375" font-size="25" text-anchor="middle" class="">CLS Readout</text>
<text x="350" y="765.625" font-size="25" text-anchor="middle" class="">first token · 384</text>
</g>
<path d="M350,880 L350,781" fill="none" stroke="#111" stroke-width="2.3" stroke-linecap="round" stroke-linejoin="round" marker-end="url(#arrow)"/>
<g data-box="205.0 475 290 75">
<rect x="205.0" y="475" width="290" height="75" rx="7" fill="#DEDCEE" stroke="#111" stroke-width="2.2"/>
<text x="350" y="507.11" font-size="22" text-anchor="middle" class="">Identity Projection</text>
<text x="350" y="532.85" font-size="22" text-anchor="middle" class="">no learned text map</text>
</g>
<path d="M350,704 L350,551" fill="none" stroke="#111" stroke-width="2.3" stroke-linecap="round" stroke-linejoin="round" marker-end="url(#arrow)"/>
<path d="M350,474 L350,359" fill="none" stroke="#111" stroke-width="2.3" stroke-linecap="round" stroke-linejoin="round" marker-end="url(#arrow)"/>
<g data-box="205.0 1505 290 48">
<rect x="205.0" y="1505" width="290" height="48" rx="7" fill="#FBF8CB" stroke="#111" stroke-width="2.2"/>
<text x="350" y="1537.16" font-size="24" text-anchor="middle" class="">Embedding LayerNorm</text>
</g>
<path d="M350,1504 L350,1471" fill="none" stroke="#111" stroke-width="2.3" stroke-linecap="round" stroke-linejoin="round"/>
<circle cx="350" cy="1605" r="18" fill="#FFFFFF" stroke="#111" stroke-width="2.1"/>
<text x="350" y="1613.99" font-size="29" text-anchor="middle" class="">+</text>
<path d="M350,1586 L350,1554" fill="none" stroke="#111" stroke-width="2.3" stroke-linecap="round" stroke-linejoin="round" marker-end="url(#arrow)"/>
<g data-box="131.0 1700 138 100">
<rect x="131.0" y="1700" width="138" height="100" rx="7" fill="#F7DCDF" stroke="#111" stroke-width="2.2"/>
<text x="200" y="1733.3999999999999" font-size="20" text-anchor="middle" class="">Position</text>
<text x="200" y="1756.8" font-size="20" text-anchor="middle" class="">Embedding</text>
<text x="200" y="1780.1999999999998" font-size="20" text-anchor="middle" class="">512 × 384</text>
</g>
<g data-box="281.0 1700 138 100">
<rect x="281.0" y="1700" width="138" height="100" rx="7" fill="#F7DCDF" stroke="#111" stroke-width="2.2"/>
<text x="350" y="1733.3999999999999" font-size="20" text-anchor="middle" class="">Token</text>
<text x="350" y="1756.8" font-size="20" text-anchor="middle" class="">Embedding</text>
<text x="350" y="1780.1999999999998" font-size="20" text-anchor="middle" class="">30,522 × 384</text>
</g>
<g data-box="431.0 1700 138 100">
<rect x="431.0" y="1700" width="138" height="100" rx="7" fill="#F7DCDF" stroke="#111" stroke-width="2.2"/>
<text x="500" y="1733.3999999999999" font-size="20" text-anchor="middle" class="">Type</text>
<text x="500" y="1756.8" font-size="20" text-anchor="middle" class="">Embedding</text>
<text x="500" y="1780.1999999999998" font-size="20" text-anchor="middle" class="">2 × 384</text>
</g>
<path d="M200,1699 L200,1605 L331,1605" fill="none" stroke="#111" stroke-width="2.3" stroke-linecap="round" stroke-linejoin="round" marker-end="url(#arrow)"/>
<path d="M350,1699 L350,1624" fill="none" stroke="#111" stroke-width="2.3" stroke-linecap="round" stroke-linejoin="round" marker-end="url(#arrow)"/>
<path d="M500,1699 L500,1605 L369,1605" fill="none" stroke="#111" stroke-width="2.3" stroke-linecap="round" stroke-linejoin="round" marker-end="url(#arrow)"/>
<path d="M350,1945 L350,1801" fill="none" stroke="#111" stroke-width="2.3" stroke-linecap="round" stroke-linejoin="round" marker-end="url(#arrow)"/>
<text x="350" y="1982.0" font-size="27" text-anchor="middle" class="">Text tokens</text>
<text x="350" y="2013.59" font-size="27" text-anchor="middle" class="">n ≤ 512</text>
<text x="350" y="2070.0" font-size="29" text-anchor="middle" class="serif">GIST-small / BERT</text>
<rect x="708.0" y="900" width="410" height="550" rx="23" fill="#F4F4F4" stroke="#111" stroke-width="2.2"/>
<text x="684.0" y="1184.0" font-size="30" text-anchor="end" class="math">12×</text>
<circle cx="900" cy="948" r="18" fill="#FFFFFF" stroke="#111" stroke-width="2.1"/>
<text x="900" y="956.99" font-size="29" text-anchor="middle" class="">+</text>
<g data-box="755.0 993 290 98">
<rect x="755.0" y="993" width="290" height="98" rx="7" fill="#C7E5F0" stroke="#111" stroke-width="2.2"/>
<text x="900" y="1024.5700000000002" font-size="21" text-anchor="middle" class="">Feed Forward</text>
<text x="900" y="1049.14" font-size="21" text-anchor="middle" class="">Linear · GELU(tanh) · Linear</text>
<text x="900" y="1073.7100000000003" font-size="21" text-anchor="middle" class="">768 → 3072 → 768</text>
</g>
<g data-box="755.0 1119 290 48">
<rect x="755.0" y="1119" width="290" height="48" rx="7" fill="#FBF8CB" stroke="#111" stroke-width="2.2"/>
<text x="900" y="1151.5" font-size="25" text-anchor="middle" class="">LayerNorm</text>
</g>
<circle cx="900" cy="1210" r="18" fill="#FFFFFF" stroke="#111" stroke-width="2.1"/>
<text x="900" y="1218.99" font-size="29" text-anchor="middle" class="">+</text>
<g data-box="755.0 1254 290 92">
<rect x="755.0" y="1254" width="290" height="92" rx="7" fill="#FCE1B8" stroke="#111" stroke-width="2.2"/>
<text x="900" y="1294.6100000000001" font-size="22" text-anchor="middle" class="">Multi-Head Self-Attention</text>
<text x="900" y="1320.3500000000001" font-size="22" text-anchor="middle" class="">12 heads · 64 / head</text>
</g>
<g data-box="755.0 1375 290 46">
<rect x="755.0" y="1375" width="290" height="46" rx="7" fill="#FBF8CB" stroke="#111" stroke-width="2.2"/>
<text x="900" y="1406.5" font-size="25" text-anchor="middle" class="">LayerNorm</text>
</g>
<path d="M900,1470 L900,1422" fill="none" stroke="#111" stroke-width="2.3" stroke-linecap="round" stroke-linejoin="round" marker-end="url(#arrow)"/>
<path d="M900,1374 L900,1361 L835,1361 L835,1347" fill="none" stroke="#111" stroke-width="2.3" stroke-linecap="round" stroke-linejoin="round" marker-end="url(#arrow)"/>
<path d="M900,1374 L900,1361 L900,1361 L900,1347" fill="none" stroke="#111" stroke-width="2.3" stroke-linecap="round" stroke-linejoin="round" marker-end="url(#arrow)"/>
<path d="M900,1374 L900,1361 L965,1361 L965,1347" fill="none" stroke="#111" stroke-width="2.3" stroke-linecap="round" stroke-linejoin="round" marker-end="url(#arrow)"/>
<path d="M900,1253 L900,1229" fill="none" stroke="#111" stroke-width="2.3" stroke-linecap="round" stroke-linejoin="round" marker-end="url(#arrow)"/>
<path d="M900,1191 L900,1168" fill="none" stroke="#111" stroke-width="2.3" stroke-linecap="round" stroke-linejoin="round" marker-end="url(#arrow)"/>
<path d="M900,1118 L900,1092" fill="none" stroke="#111" stroke-width="2.3" stroke-linecap="round" stroke-linejoin="round" marker-end="url(#arrow)"/>
<path d="M900,992 L900,967" fill="none" stroke="#111" stroke-width="2.3" stroke-linecap="round" stroke-linejoin="round" marker-end="url(#arrow)"/>
<path d="M900,929 L900,880" fill="none" stroke="#111" stroke-width="2.3" stroke-linecap="round" stroke-linejoin="round"/>
<path d="M900,1434 L1090.0,1434 L1090.0,1210 L920,1210" fill="none" stroke="#111" stroke-width="2.3" stroke-linecap="round" stroke-linejoin="round" marker-end="url(#arrow)"/>
<path d="M900,1180 L1090.0,1180 L1090.0,948 L920,948" fill="none" stroke="#111" stroke-width="2.3" stroke-linecap="round" stroke-linejoin="round" marker-end="url(#arrow)"/>
<circle cx="900" cy="1434" r="3.5" fill="#111"/>
<circle cx="900" cy="1180" r="3.5" fill="#111"/>
<g data-box="755.0 812 290 48">
<rect x="755.0" y="812" width="290" height="48" rx="7" fill="#FBF8CB" stroke="#111" stroke-width="2.2"/>
<text x="900" y="844.5" font-size="25" text-anchor="middle" class="">Final LayerNorm</text>
</g>
<path d="M900,880 L900,861" fill="none" stroke="#111" stroke-width="2.3" stroke-linecap="round" stroke-linejoin="round" marker-end="url(#arrow)"/>
<g data-box="755.0 704 290 72">
<rect x="755.0" y="704" width="290" height="72" rx="7" fill="#FCE1B8" stroke="#111" stroke-width="2.2"/>
<text x="900" y="733.875" font-size="25" text-anchor="middle" class="">Multi-Head</text>
<text x="900" y="763.125" font-size="25" text-anchor="middle" class="">Attention Pool</text>
</g>
<g data-box="562.0 708 146 64">
<rect x="562.0" y="708" width="146" height="64" rx="7" fill="#F7DCDF" stroke="#111" stroke-width="2.2"/>
<text x="635" y="734.61" font-size="22" text-anchor="middle" class="">Learned</text>
<text x="635" y="760.35" font-size="22" text-anchor="middle" class="">probe q</text>
</g>
<path d="M709,740.0 L754.0,740.0" fill="none" stroke="#111" stroke-width="2.3" stroke-linecap="round" stroke-linejoin="round" marker-end="url(#arrow)"/>
<path d="M900,811 L900,791 L845,791 L845,777" fill="none" stroke="#111" stroke-width="2.3" stroke-linecap="round" stroke-linejoin="round" marker-end="url(#arrow)"/>
<text x="826" y="797.0" font-size="18" text-anchor="end" class="math">K</text>
<path d="M900,811 L900,791 L955,791 L955,777" fill="none" stroke="#111" stroke-width="2.3" stroke-linecap="round" stroke-linejoin="round" marker-end="url(#arrow)"/>
<text x="975" y="797.0" font-size="18" text-anchor="start" class="math">V</text>
<g data-box="755.0 633 290 45">
<rect x="755.0" y="633" width="290" height="45" rx="7" fill="#FBF8CB" stroke="#111" stroke-width="2.2"/>
<text x="900" y="663.66" font-size="24" text-anchor="middle" class="">LayerNorm</text>
</g>
<path d="M900,703 L900,679" fill="none" stroke="#111" stroke-width="2.3" stroke-linecap="round" stroke-linejoin="round" marker-end="url(#arrow)"/>
<g data-box="755.0 541 290 68">
<rect x="755.0" y="541" width="290" height="68" rx="7" fill="#C7E5F0" stroke="#111" stroke-width="2.2"/>
<text x="900" y="569.365" font-size="23" text-anchor="middle" class="">Feed Forward</text>
<text x="900" y="596.275" font-size="23" text-anchor="middle" class="">768 → 3072 → 768</text>
</g>
<path d="M900,632 L900,610" fill="none" stroke="#111" stroke-width="2.3" stroke-linecap="round" stroke-linejoin="round" marker-end="url(#arrow)"/>
<circle cx="900" cy="495" r="18" fill="#FFFFFF" stroke="#111" stroke-width="2.1"/>
<text x="900" y="503.99" font-size="29" text-anchor="middle" class="">+</text>
<path d="M900,540 L900,514" fill="none" stroke="#111" stroke-width="2.3" stroke-linecap="round" stroke-linejoin="round" marker-end="url(#arrow)"/>
<path d="M900,692 L1094,692 L1094,495 L920,495" fill="none" stroke="#111" stroke-width="2.3" stroke-linecap="round" stroke-linejoin="round" marker-end="url(#arrow)"/>
<circle cx="900" cy="692" r="3.5" fill="#111"/>
<g data-box="755.0 380 290 70">
<rect x="755.0" y="380" width="290" height="70" rx="7" fill="#DEDCEE" stroke="#111" stroke-width="2.2"/>
<text x="900" y="408.875" font-size="25" text-anchor="middle" class="">Linear Projection</text>
<text x="900" y="438.125" font-size="25" text-anchor="middle" class="">768 → 384</text>
</g>
<path d="M900,476 L900,451" fill="none" stroke="#111" stroke-width="2.3" stroke-linecap="round" stroke-linejoin="round" marker-end="url(#arrow)"/>
<path d="M900,379 L900,359" fill="none" stroke="#111" stroke-width="2.3" stroke-linecap="round" stroke-linejoin="round" marker-end="url(#arrow)"/>
<circle cx="900" cy="1530" r="18" fill="#FFFFFF" stroke="#111" stroke-width="2.1"/>
<text x="900" y="1538.99" font-size="29" text-anchor="middle" class="">+</text>
<path d="M900,1511 L900,1471" fill="none" stroke="#111" stroke-width="2.3" stroke-linecap="round" stroke-linejoin="round"/>
<g data-box="1027.0 1484 182 92">
<rect x="1027.0" y="1484" width="182" height="92" rx="7" fill="#F7DCDF" stroke="#111" stroke-width="2.2"/>
<text x="1118" y="1524.855" font-size="21" text-anchor="middle" class="">Learned Position</text>
<text x="1118" y="1549.425" font-size="21" text-anchor="middle" class="">1024 × 768</text>
</g>
<path d="M1026,1530 L919,1530" fill="none" stroke="#111" stroke-width="2.3" stroke-linecap="round" stroke-linejoin="round" marker-end="url(#arrow)"/>
<g data-box="755.0 1670 290 106">
<rect x="755.0" y="1670" width="290" height="106" rx="7" fill="#F7DCDF" stroke="#111" stroke-width="2.2"/>
<text x="900" y="1704.74" font-size="22" text-anchor="middle" class="">Patch Embedding</text>
<text x="900" y="1730.48" font-size="22" text-anchor="middle" class="">Conv2D: 16 × 16, stride 16</text>
<text x="900" y="1756.22" font-size="22" text-anchor="middle" class="">1024 tokens × 768</text>
</g>
<path d="M900,1669 L900,1549" fill="none" stroke="#111" stroke-width="2.3" stroke-linecap="round" stroke-linejoin="round" marker-end="url(#arrow)"/>
<path d="M900,1945 L900,1777" fill="none" stroke="#111" stroke-width="2.3" stroke-linecap="round" stroke-linejoin="round" marker-end="url(#arrow)"/>
<text x="900" y="1982.0" font-size="27" text-anchor="middle" class="">RGB image</text>
<text x="900" y="2013.59" font-size="27" text-anchor="middle" class="">512 × 512</text>
<text x="900" y="2070.0" font-size="29" text-anchor="middle" class="serif">SigLIP ViT</text>
<rect x="1258.0" y="900" width="410" height="550" rx="23" fill="#F4F4F4" stroke="#111" stroke-width="2.2"/>
<text x="1234.0" y="1184.0" font-size="30" text-anchor="end" class="math">4×</text>
<circle cx="1450" cy="948" r="18" fill="#FFFFFF" stroke="#111" stroke-width="2.1"/>
<text x="1450" y="956.99" font-size="29" text-anchor="middle" class="">+</text>
<g data-box="1305.0 993 290 98">
<rect x="1305.0" y="993" width="290" height="98" rx="7" fill="#C7E5F0" stroke="#111" stroke-width="2.2"/>
<text x="1450" y="1024.5700000000002" font-size="21" text-anchor="middle" class="">Feed Forward</text>
<text x="1450" y="1049.14" font-size="21" text-anchor="middle" class="">Linear · GELU · Linear</text>
<text x="1450" y="1073.7100000000003" font-size="21" text-anchor="middle" class="">384 → 1536 → 384</text>
</g>
<g data-box="1305.0 1119 290 48">
<rect x="1305.0" y="1119" width="290" height="48" rx="7" fill="#FBF8CB" stroke="#111" stroke-width="2.2"/>
<text x="1450" y="1151.5" font-size="25" text-anchor="middle" class="">LayerNorm</text>
</g>
<circle cx="1450" cy="1210" r="18" fill="#FFFFFF" stroke="#111" stroke-width="2.1"/>
<text x="1450" y="1218.99" font-size="29" text-anchor="middle" class="">+</text>
<g data-box="1305.0 1254 290 92">
<rect x="1305.0" y="1254" width="290" height="92" rx="7" fill="#FCE1B8" stroke="#111" stroke-width="2.2"/>
<text x="1450" y="1294.6100000000001" font-size="22" text-anchor="middle" class="">Multi-Head Self-Attention</text>
<text x="1450" y="1320.3500000000001" font-size="22" text-anchor="middle" class="">6 heads · 64 / head</text>
</g>
<g data-box="1305.0 1375 290 46">
<rect x="1305.0" y="1375" width="290" height="46" rx="7" fill="#FBF8CB" stroke="#111" stroke-width="2.2"/>
<text x="1450" y="1406.5" font-size="25" text-anchor="middle" class="">LayerNorm</text>
</g>
<path d="M1450,1470 L1450,1422" fill="none" stroke="#111" stroke-width="2.3" stroke-linecap="round" stroke-linejoin="round" marker-end="url(#arrow)"/>
<path d="M1450,1374 L1450,1361 L1385,1361 L1385,1347" fill="none" stroke="#111" stroke-width="2.3" stroke-linecap="round" stroke-linejoin="round" marker-end="url(#arrow)"/>
<path d="M1450,1374 L1450,1361 L1450,1361 L1450,1347" fill="none" stroke="#111" stroke-width="2.3" stroke-linecap="round" stroke-linejoin="round" marker-end="url(#arrow)"/>
<path d="M1450,1374 L1450,1361 L1515,1361 L1515,1347" fill="none" stroke="#111" stroke-width="2.3" stroke-linecap="round" stroke-linejoin="round" marker-end="url(#arrow)"/>
<path d="M1450,1253 L1450,1229" fill="none" stroke="#111" stroke-width="2.3" stroke-linecap="round" stroke-linejoin="round" marker-end="url(#arrow)"/>
<path d="M1450,1191 L1450,1168" fill="none" stroke="#111" stroke-width="2.3" stroke-linecap="round" stroke-linejoin="round" marker-end="url(#arrow)"/>
<path d="M1450,1118 L1450,1092" fill="none" stroke="#111" stroke-width="2.3" stroke-linecap="round" stroke-linejoin="round" marker-end="url(#arrow)"/>
<path d="M1450,992 L1450,967" fill="none" stroke="#111" stroke-width="2.3" stroke-linecap="round" stroke-linejoin="round" marker-end="url(#arrow)"/>
<path d="M1450,929 L1450,880" fill="none" stroke="#111" stroke-width="2.3" stroke-linecap="round" stroke-linejoin="round"/>
<path d="M1450,1434 L1640.0,1434 L1640.0,1210 L1470,1210" fill="none" stroke="#111" stroke-width="2.3" stroke-linecap="round" stroke-linejoin="round" marker-end="url(#arrow)"/>
<path d="M1450,1180 L1640.0,1180 L1640.0,948 L1470,948" fill="none" stroke="#111" stroke-width="2.3" stroke-linecap="round" stroke-linejoin="round" marker-end="url(#arrow)"/>
<circle cx="1450" cy="1434" r="3.5" fill="#111"/>
<circle cx="1450" cy="1180" r="3.5" fill="#111"/>
<g data-box="1305.0 812 290 48">
<rect x="1305.0" y="812" width="290" height="48" rx="7" fill="#FBF8CB" stroke="#111" stroke-width="2.2"/>
<text x="1450" y="844.5" font-size="25" text-anchor="middle" class="">Final LayerNorm</text>
</g>
<path d="M1450,880 L1450,861" fill="none" stroke="#111" stroke-width="2.3" stroke-linecap="round" stroke-linejoin="round" marker-end="url(#arrow)"/>
<g data-box="1305.0 704 290 75">
<rect x="1305.0" y="704" width="290" height="75" rx="7" fill="#E6ECE8" stroke="#111" stroke-width="2.2"/>
<text x="1450" y="735.375" font-size="25" text-anchor="middle" class="">Mean over Frames</text>
<text x="1450" y="764.625" font-size="25" text-anchor="middle" class="">1500 states</text>
</g>
<path d="M1450,811 L1450,780" fill="none" stroke="#111" stroke-width="2.3" stroke-linecap="round" stroke-linejoin="round" marker-end="url(#arrow)"/>
<g data-box="1305.0 470 290 70">
<rect x="1305.0" y="470" width="290" height="70" rx="7" fill="#DEDCEE" stroke="#111" stroke-width="2.2"/>
<text x="1450" y="498.875" font-size="25" text-anchor="middle" class="">Linear Projection</text>
<text x="1450" y="528.125" font-size="25" text-anchor="middle" class="">384 → 384</text>
</g>
<path d="M1450,703 L1450,541" fill="none" stroke="#111" stroke-width="2.3" stroke-linecap="round" stroke-linejoin="round" marker-end="url(#arrow)"/>
<path d="M1450,469 L1450,359" fill="none" stroke="#111" stroke-width="2.3" stroke-linecap="round" stroke-linejoin="round" marker-end="url(#arrow)"/>
<circle cx="1450" cy="1530" r="18" fill="#FFFFFF" stroke="#111" stroke-width="2.1"/>
<text x="1450" y="1538.99" font-size="29" text-anchor="middle" class="">+</text>
<path d="M1450,1511 L1450,1471" fill="none" stroke="#111" stroke-width="2.3" stroke-linecap="round" stroke-linejoin="round"/>
<g data-box="1563.0 1484 188 92">
<rect x="1563.0" y="1484" width="188" height="92" rx="7" fill="#F7DCDF" stroke="#111" stroke-width="2.2"/>
<text x="1657" y="1525.345" font-size="19" text-anchor="middle" class="">Sinusoidal Position</text>
<text x="1657" y="1547.575" font-size="19" text-anchor="middle" class="">1500 × 384</text>
</g>
<path d="M1562,1530 L1469,1530" fill="none" stroke="#111" stroke-width="2.3" stroke-linecap="round" stroke-linejoin="round" marker-end="url(#arrow)"/>
<g data-box="1305.0 1620 290 75">
<rect x="1305.0" y="1620" width="290" height="75" rx="7" fill="#F7DCDF" stroke="#111" stroke-width="2.2"/>
<text x="1450" y="1651.865" font-size="23" text-anchor="middle" class="">Conv1D + GELU</text>
<text x="1450" y="1678.775" font-size="23" text-anchor="middle" class="">k = 3, s = 2; 384 → 384</text>
</g>
<path d="M1450,1619 L1450,1549" fill="none" stroke="#111" stroke-width="2.3" stroke-linecap="round" stroke-linejoin="round" marker-end="url(#arrow)"/>
<g data-box="1305.0 1732 290 75">
<rect x="1305.0" y="1732" width="290" height="75" rx="7" fill="#F7DCDF" stroke="#111" stroke-width="2.2"/>
<text x="1450" y="1763.865" font-size="23" text-anchor="middle" class="">Conv1D + GELU</text>
<text x="1450" y="1790.775" font-size="23" text-anchor="middle" class="">k = 3, s = 1; 80 → 384</text>
</g>
<path d="M1450,1731 L1450,1696" fill="none" stroke="#111" stroke-width="2.3" stroke-linecap="round" stroke-linejoin="round" marker-end="url(#arrow)"/>
<g data-box="1305.0 1844 290 75">
<rect x="1305.0" y="1844" width="290" height="75" rx="7" fill="#E6ECE8" stroke="#111" stroke-width="2.2"/>
<text x="1450" y="1875.865" font-size="23" text-anchor="middle" class="">Log-Mel Spectrogram</text>
<text x="1450" y="1902.775" font-size="23" text-anchor="middle" class="">80 bins × 3000 frames</text>
</g>
<path d="M1450,1843 L1450,1808" fill="none" stroke="#111" stroke-width="2.3" stroke-linecap="round" stroke-linejoin="round" marker-end="url(#arrow)"/>
<path d="M1450,1945 L1450,1920" fill="none" stroke="#111" stroke-width="2.3" stroke-linecap="round" stroke-linejoin="round" marker-end="url(#arrow)"/>
<text x="1450" y="1982.0" font-size="27" text-anchor="middle" class="">Mono waveform</text>
<text x="1450" y="2013.59" font-size="27" text-anchor="middle" class="">16 kHz · ≤ 30 s</text>
<text x="1450" y="2070.0" font-size="29" text-anchor="middle" class="serif">Whisper encoder</text>
</svg>
